<?xml version="1.0" encoding="utf-8"?>
<!-- Generator: Adobe Illustrator 23.1.0, SVG Export Plug-In . SVG Version: 6.00 Build 0)  -->
<svg version="1.1" id="Layer_1" xmlns="http://www.w3.org/2000/svg" xmlns:xlink="http://www.w3.org/1999/xlink" x="0px" y="0px"
	 viewBox="0 0 60 70" style="enable-background:new 0 0 60 70;" xml:space="preserve">
<path d="M12.83,43.59c-1.21-3.59-2.42-7.18-3.62-10.74c-0.98,1.84-1.97,3.74-3,5.61c-0.71,1.29-1.44,2.58-2.26,3.8
	c-0.51,0.77-1.26,1.35-2.09,1.78c-0.06-0.05-0.13-0.09-0.19-0.14c0.15-0.33,0.27-0.67,0.44-0.99c1.52-2.92,3.11-5.8,4.54-8.75
	c0.73-1.5,1.19-3.14,1.77-4.71c0.5-1.34,1.53-2.2,2.69-3.09c1.22,4.14,2.4,8.17,3.58,12.19c0.06,0.01,0.12,0.02,0.18,0.03
	c0.32-0.74,0.65-1.48,0.95-2.23c0.29-0.73,0.55-1.47,0.84-2.2c0.53-1.35,1.51-2.3,2.66-3.11c0.14-0.1,0.31-0.14,0.54-0.15
	c-1.82,4.5-3.2,9.23-6.78,12.77C12.99,43.63,12.91,43.61,12.83,43.59z"/>
<path d="M41.35,39.14c0.92-1.97,1.81-3.87,2.71-5.77c0.7-1.48,1.39-2.95,2.12-4.42c0.56-1.15,1.41-2.07,2.42-2.83
	c0.21-0.16,0.45-0.27,0.82-0.48c-0.08,0.31-0.09,0.48-0.16,0.62c-1.42,3.01-2.79,6.05-4.28,9.03c-1,2-2.07,3.97-3.25,5.87
	c-0.54,0.86-1.42,1.52-2.18,2.24c-0.27,0.26-0.56,0.26-0.74-0.15c-0.08-0.18-0.19-0.35-0.27-0.53c-1.7-3.89-3.41-7.78-5.09-11.68
	c-0.08-0.18-0.07-0.52,0.04-0.65c0.69-0.75,1.42-1.47,2.16-2.17c0.32-0.3,0.58-0.12,0.74,0.2c0.48,0.96,0.96,1.92,1.4,2.9
	c1.12,2.54,2.22,5.08,3.33,7.62C41.13,38.98,41.18,39,41.35,39.14z"/>
<path d="M22.4,25.4c0.4,2.31,1.41,4.22,2.28,6.17c0.9,2.02,1.83,4.03,2.68,6.07c0.49,1.17,0.88,2.39,1.28,3.6
	c0.07,0.2,0.05,0.54-0.07,0.68c-0.71,0.76-1.44,1.5-2.21,2.21c-0.29,0.27-0.57,0.17-0.7-0.24c-1.35-4.45-3.53-8.55-5.32-12.81
	c-0.33-0.78-0.5-1.62-0.72-2.44c-0.04-0.16-0.07-0.38,0-0.52C20.26,26.98,21.16,26.09,22.4,25.4z"/>
<path d="M32.69,26.08c0,0.61,0.01,1.09,0,1.57c-0.08,3.07-0.16,6.13-0.24,9.2c-0.04,1.5-0.05,3-0.17,4.5
	c-0.03,0.45-0.29,0.94-0.57,1.31c-0.59,0.8-1.28,1.53-2.35,1.94c0-0.42-0.01-0.74,0-1.07c0.13-4.72,0.25-9.45,0.4-14.17
	c0.01-0.34,0.11-0.74,0.31-0.98c0.58-0.67,1.23-1.29,1.87-1.9C32.12,26.32,32.37,26.25,32.69,26.08z"/>
<path d="M56.45,38.98c-0.67,1.17-1.6,2.1-2.79,2.76c-1.45,0.81-3.05,0.83-4.64,0.81c-1.07-0.01-2.15-0.09-3.22-0.16
	c-1.08-0.06-2.09,0.1-3.01,0.69c-0.14,0.09-0.32,0.12-0.64,0.23c0.12-0.3,0.17-0.49,0.27-0.64c1.44-2.08,3.33-3.34,5.95-3.26
	c1.5,0.05,3,0.2,4.49,0.13c1.02-0.05,2.03-0.41,3.05-0.64c0.14-0.03,0.29-0.07,0.43-0.1C56.37,38.87,56.41,38.92,56.45,38.98z"/>
<path d="M48.08,30.31c0.4-0.51,0.78-1.04,1.22-1.52c0.77-0.84,1.66-1.33,2.88-1.24c2.16,0.15,4.34,0.16,6.39-0.75
	c0.11-0.05,0.25-0.02,0.51-0.03c-0.69,1.37-1.62,2.37-2.93,2.93c-1.84,0.78-3.79,1-5.78,0.81c-0.7-0.06-1.41-0.01-2.12-0.01
	C48.2,30.44,48.14,30.38,48.08,30.31z"/>
<path d="M45.72,35.96c0.45-2.21,3.69-3.64,6.82-2.9c-0.1,0.23-0.17,0.46-0.3,0.64c-0.27,0.36-0.56,0.7-0.86,1.03
	c-0.77,0.81-1.61,1.3-2.84,1.12C47.62,35.72,46.65,35.91,45.72,35.96z"/>
<path d="M16.82,40.67c0.62-1.62,2.86-3.7,5.35-2.97c-0.07,0.18-0.09,0.39-0.2,0.52c-0.65,0.7-1.32,1.39-1.99,2.06
	c-0.12,0.12-0.31,0.21-0.47,0.22C18.59,40.58,17.69,40.62,16.82,40.67z"/>
</svg>
